<?xml version="1.0" standalone="no"?>
<!DOCTYPE svg PUBLIC "-//W3C//DTD SVG 20010904//EN"
 "http://www.w3.org/TR/2001/REC-SVG-20010904/DTD/svg10.dtd">
<svg version="1.0" xmlns="http://www.w3.org/2000/svg"
 width="532.000000pt" height="428.000000pt" viewBox="0 0 532.000000 428.000000"
 preserveAspectRatio="xMidYMid meet">
<metadata>
Created by potrace 1.16, written by Peter Selinger 2001-2019
</metadata>
<g transform="translate(0.000000,428.000000) scale(0.100000,-0.100000)"
fill="#000000" stroke="none">
<path d="M0 2916 c0 -1162 2 -1365 14 -1375 10 -9 16 -9 21 -1 5 8 10 8 20 0
10 -8 15 -8 20 0 5 8 10 8 20 0 10 -8 15 -8 20 0 5 8 10 8 20 0 10 -8 15 -8
20 0 5 8 10 8 20 0 10 -8 15 -8 20 0 5 8 11 8 19 1 7 -6 16 -8 20 -4 10 10 37
13 31 3 -3 -5 -1 -11 5 -15 6 -4 10 -52 10 -115 l0 -109 -142 -4 -143 -3 143
-2 142 -2 1 -62 c1 -47 3 -57 9 -38 4 14 8 42 9 63 l1 38 138 -3 137 -3 6 -60
c4 -48 6 -52 7 -20 5 90 -3 86 151 83 l136 -3 6 -60 5 -60 5 60 4 60 140 0
140 0 6 -65 5 -65 5 65 4 65 45 0 45 0 5 -125 c6 -138 11 -157 47 -171 37 -14
52 -11 78 16 24 23 25 30 25 149 0 78 4 127 11 131 17 11 19 2 7 -43 -22 -88
10 -170 89 -226 36 -25 53 -30 105 -30 90 -1 155 39 168 104 5 25 5 25 28 -11
12 -20 40 -49 62 -64 34 -23 52 -28 108 -30 60 -1 71 1 101 26 l34 28 28 -30
c29 -31 43 -34 82 -20 34 13 40 32 46 146 6 91 8 100 26 100 19 0 20 -9 26
-118 3 -64 9 -120 12 -124 10 -10 69 -12 92 -3 38 14 48 59 43 185 l-4 115 83
0 83 0 1 -62 c1 -35 1 -67 0 -71 -1 -5 2 -6 7 -3 5 3 10 33 11 68 2 68 4 73
20 63 7 -4 11 -53 11 -131 0 -121 1 -126 26 -151 20 -20 32 -24 56 -19 48 10
57 30 58 133 0 93 5 123 21 123 5 0 9 -43 9 -95 0 -109 14 -149 56 -159 40
-10 64 3 84 46 10 23 19 34 23 26 2 -8 23 -27 46 -42 34 -24 52 -29 110 -31
67 -2 70 -1 115 37 39 34 46 45 46 76 0 26 6 41 19 49 18 11 22 5 52 -68 34
-87 52 -102 111 -95 24 2 33 10 43 37 7 19 18 48 25 64 l12 30 16 -41 c29 -72
45 -88 84 -88 48 0 62 13 89 87 l23 62 13 -46 c19 -65 74 -103 148 -103 60 0
96 19 125 67 21 34 26 97 10 127 -13 23 -1 112 14 107 6 -2 13 -30 17 -63 l5
-59 5 60 4 60 140 0 140 0 6 -65 5 -65 5 65 4 65 137 3 136 3 9 -68 8 -68 5
65 5 65 138 3 137 3 0 -43 c0 -24 5 -50 10 -58 7 -11 10 2 10 42 l0 57 123 4
122 3 -122 2 -123 2 0 99 c0 112 12 160 34 142 10 -9 16 -9 21 -1 5 8 10 8 20
0 10 -8 15 -8 20 0 5 8 10 8 20 0 10 -8 15 -8 20 0 5 8 10 8 20 0 10 -8 15 -8
20 0 5 8 10 8 20 0 9 -8 15 -8 20 0 3 6 11 8 16 5 5 -4 9 521 9 1364 l0 1371
-2660 0 -2660 0 0 -1364z m2776 889 c14 -21 15 -31 5 -51 -8 -18 -8 -31 0 -45
15 -29 6 -34 -59 -34 -68 0 -103 -20 -129 -75 -11 -22 -33 -46 -55 -59 l-38
-22 0 40 c0 28 -8 48 -26 70 -29 35 -23 54 21 65 16 4 27 16 31 34 10 43 33
62 74 62 20 0 41 -5 46 -10 11 -11 44 -3 44 10 0 15 31 40 50 40 11 0 27 -11
36 -25z m138 -161 c17 -17 20 -47 7 -79 -10 -24 7 -65 26 -65 51 0 100 -63 88
-113 -6 -22 -1 -29 34 -51 l40 -26 37 25 c62 42 115 27 145 -42 17 -40 21 -43
57 -43 35 0 84 -22 72 -33 -12 -10 -130 -16 -130 -6 0 5 -11 21 -25 34 -18 19
-35 25 -68 25 -24 0 -58 7 -76 16 -48 24 -131 -6 -131 -47 0 -27 26 -34 55
-15 32 21 44 20 72 -6 21 -20 27 -21 55 -10 29 10 72 2 52 -11 -5 -3 -85 -8
-179 -12 l-170 -7 33 21 c86 55 51 174 -51 176 -23 1 -55 7 -70 13 -40 17 -67
15 -103 -7 -37 -23 -62 -76 -47 -100 20 -31 35 -21 63 39 12 25 59 24 86 -1
22 -20 26 -21 50 -9 31 17 57 4 62 -29 3 -17 -4 -25 -27 -34 -17 -6 -33 -19
-36 -27 -11 -36 -75 -50 -220 -50 -121 0 -136 2 -125 15 19 22 4 81 -26 102
-14 10 -43 33 -65 51 -56 44 -78 43 -142 -10 -71 -59 -77 -67 -77 -103 l0 -36
-72 6 c-104 9 -123 14 -109 28 6 6 11 31 11 54 0 33 6 50 25 68 28 29 85 34
105 10 15 -18 56 -20 66 -3 4 7 12 33 17 58 8 41 9 63 7 114 -2 31 30 57 66
54 20 -1 41 5 52 15 47 43 115 -1 94 -62 -9 -26 -7 -32 22 -60 39 -38 49 -38
74 -6 11 14 36 32 55 40 25 10 36 22 40 44 4 17 16 40 28 52 21 21 48 22 121
4 22 -6 29 -3 34 11 4 11 11 25 17 32 13 17 62 15 81 -4z m247 -35 c15 -15 19
-28 14 -46 -7 -28 9 -53 35 -53 21 0 47 -29 50 -55 5 -42 1 -46 -34 -40 -24 5
-48 1 -80 -14 -25 -11 -46 -19 -47 -18 0 1 -2 17 -5 36 -6 50 -35 93 -77 116
-41 22 -51 41 -12 23 28 -13 75 2 75 23 0 17 30 49 47 49 7 0 22 -9 34 -21z
m-797 -324 c9 -14 25 -25 35 -25 21 0 31 -12 49 -53 l12 -29 -99 4 c-74 2
-104 7 -116 19 -20 20 -10 47 21 55 12 3 30 17 39 30 20 31 38 30 59 -1z
m-204 -151 c110 -9 299 -15 510 -15 314 0 437 6 688 32 90 9 106 9 127 -5 16
-10 25 -26 25 -41 0 -25 -31 -65 -50 -65 -5 0 -87 -8 -182 -17 -254 -25 -950
-25 -1213 1 -208 20 -235 28 -235 76 0 45 33 63 100 55 30 -3 134 -12 230 -21z
m358 -202 c17 -22 15 -69 -4 -76 -9 -3 -74 -6 -144 -6 -118 0 -130 2 -140 19
-10 20 -14 74 -5 83 3 2 67 3 142 0 111 -3 140 -7 151 -20z m580 13 c1 -1 0
-20 -4 -42 l-6 -40 -67 -7 c-91 -8 -193 -7 -209 2 -9 6 -10 19 -4 48 l8 39
119 5 c105 5 153 3 163 -5z m338 -162 c15 -16 16 -36 10 -223 -4 -113 -11
-209 -15 -213 -5 -5 -125 -7 -269 -5 l-260 3 -96 93 c-88 85 -98 92 -136 92
-37 0 -48 -7 -128 -84 -49 -47 -100 -90 -116 -95 -32 -13 -512 -15 -520 -3 -3
5 -8 101 -12 213 -6 186 -5 206 10 222 16 16 72 17 766 17 694 0 750 -1 766
-17z m-471 -506 c46 -5 82 -13 80 -18 -3 -4 -12 -101 -20 -215 -9 -114 -17
-209 -18 -210 -2 -2 -51 -6 -110 -10 -103 -7 -107 -6 -107 13 0 11 9 28 20 38
25 23 37 67 45 176 7 89 -2 128 -39 158 -11 10 -16 31 -16 72 l0 59 40 -26
c30 -20 61 -29 125 -37z m-454 -81 c-12 -12 -23 -35 -26 -51 -7 -39 20 -244
34 -258 6 -6 11 -24 11 -40 l0 -30 -107 7 c-60 4 -109 9 -110 10 -10 9 -22
124 -28 251 -3 83 -9 157 -11 166 -4 14 9 18 81 24 58 5 99 14 128 29 l42 23
3 -55 c2 -44 -1 -59 -17 -76z m270 -26 c11 -6 19 -21 19 -35 l0 -25 -130 0
-130 0 0 25 c0 13 8 29 18 34 22 14 198 14 223 1z m-2445 -633 c4 -4 13 -2 20
4 8 7 14 7 19 -1 5 -8 10 -8 20 0 10 8 15 8 20 0 5 -8 10 -8 20 0 10 8 15 8
20 0 5 -8 10 -8 20 0 10 8 15 8 20 0 5 -8 10 -8 20 0 10 8 15 8 20 0 5 -8 11
-8 19 0 10 8 14 -5 19 -57 4 -38 7 -94 7 -125 l0 -58 -140 0 -141 0 2 124 c1
98 4 124 15 122 7 -1 17 -5 20 -9z m299 3 c5 8 10 8 20 0 10 -8 15 -8 20 0 5
8 10 8 20 0 10 -8 15 -8 20 0 5 8 10 8 20 0 10 -8 15 -8 20 0 5 8 11 8 19 1 7
-6 16 -8 20 -4 4 4 22 8 40 8 l34 1 7 -112 c4 -62 4 -118 0 -123 -4 -7 -57
-11 -141 -11 l-134 0 0 126 c0 108 2 125 14 115 10 -9 16 -9 21 -1z m534 -69
c1 -42 4 -96 5 -121 l1 -45 -137 -3 -138 -3 0 124 0 124 133 0 132 0 4 -76z
m601 -13 c0 -48 -1 -88 -2 -88 -2 0 -25 7 -52 15 -72 22 -147 4 -203 -48 l-23
-20 0 24 c0 37 11 69 23 69 6 0 21 10 34 22 25 23 32 85 12 105 -7 7 22 10
100 10 l111 0 0 -89z m77 79 c6 -4 15 -3 18 3 5 8 11 8 20 0 10 -8 15 -8 20 0
5 8 10 8 20 0 10 -8 15 -8 20 0 5 8 10 8 20 0 10 -8 15 -8 20 0 5 8 10 8 20 0
10 -8 15 -8 20 0 5 8 11 7 23 -2 13 -11 14 -11 7 1 -5 10 -4 12 3 7 7 -4 12
-36 12 -79 l0 -73 -53 0 c-59 -1 -107 -22 -153 -66 l-31 -29 -23 28 c-19 24
-21 36 -16 78 3 28 6 71 6 97 0 49 11 57 47 35z m567 1 c-6 -10 -4 -10 8 0 12
9 18 10 23 2 5 -8 10 -8 20 0 10 8 15 8 20 0 5 -8 10 -9 18 -1 7 7 14 7 23 0
8 -7 14 -7 19 1 5 8 10 8 20 0 10 -8 15 -8 20 0 5 8 10 8 20 0 10 -8 15 -8 20
0 5 8 11 7 23 -2 13 -11 14 -11 7 1 -5 10 -4 12 3 7 8 -5 12 -47 12 -127 l0
-119 -90 0 c-79 0 -91 2 -102 20 -7 11 -30 32 -50 47 -36 24 -38 29 -38 79 0
50 13 104 25 104 4 0 3 -6 -1 -12z m313 -1 c6 -4 15 -3 18 3 5 8 11 8 20 0 10
-8 15 -8 20 0 5 8 10 8 20 0 10 -8 15 -8 20 0 5 8 10 8 20 0 10 -8 15 -8 20 0
5 8 10 8 20 0 10 -8 15 -8 20 0 5 8 10 8 20 0 10 -8 15 -8 21 2 12 19 22 -25
23 -105 1 -65 0 -67 -20 -57 -11 6 -57 13 -103 15 -94 5 -118 -7 -131 -65 -4
-16 -11 -30 -16 -30 -6 0 -9 50 -8 124 1 124 4 133 36 113z m298 3 c5 8 10 8
20 0 10 -8 15 -8 20 0 5 8 10 8 20 0 10 -8 15 -8 20 0 5 8 10 8 20 0 10 -8 15
-8 20 0 5 8 10 8 20 0 10 -8 15 -8 20 0 5 8 11 8 19 1 7 -6 16 -8 20 -4 11 12
33 11 33 -1 0 -6 4 -41 8 -77 l7 -66 -60 0 c-64 0 -127 -28 -165 -73 l-19 -23
-19 29 c-15 24 -19 48 -19 128 0 84 2 97 14 87 10 -9 16 -9 21 -1z m302 -3 c6
-4 15 -3 18 3 5 8 11 8 20 0 10 -8 15 -8 20 0 5 8 10 8 20 0 10 -8 15 -8 20 0
5 8 10 8 20 0 10 -8 15 -8 20 0 5 8 11 8 19 1 7 -6 16 -8 20 -4 4 4 17 8 30
10 22 3 23 0 29 -86 5 -68 3 -98 -8 -125 -20 -47 -36 -45 -60 6 -15 31 -28 44
-49 50 -31 8 -81 -11 -89 -34 -3 -10 -11 -9 -33 4 -28 16 -29 19 -30 101 -2
85 2 93 33 74z m533 -66 c0 -74 -1 -76 -26 -77 -31 -2 -58 -26 -74 -65 -7 -16
-18 -29 -25 -29 -7 0 -18 13 -25 29 -18 44 -46 65 -85 64 l-35 -1 0 77 0 78
135 0 135 0 0 -76z m302 -28 c1 -57 2 -111 2 -120 1 -26 -31 -28 -39 -4 -3 12
-22 33 -42 48 -42 32 -115 37 -156 10 -13 -9 -27 -13 -31 -10 -3 4 -6 45 -6
93 l0 87 135 0 135 0 2 -104z m296 -20 l3 -123 -135 0 c-74 0 -137 3 -139 8
-3 4 -2 59 0 123 l6 116 131 -1 131 -1 3 -122z m77 117 c5 8 10 8 20 0 10 -8
15 -8 20 0 5 8 10 8 20 0 10 -8 15 -8 20 0 5 8 10 8 20 0 10 -8 15 -8 20 0 5
8 10 8 20 0 10 -8 15 -8 20 0 5 8 10 8 20 0 9 -8 15 -8 20 0 17 27 25 -11 25
-121 l0 -120 -137 3 -138 3 3 110 c3 127 6 142 26 126 10 -9 16 -9 21 -1z
m269 -2 c-6 -10 -4 -10 8 0 12 9 18 10 23 2 5 -8 10 -8 20 0 10 8 15 8 20 0 5
-8 10 -9 18 -1 7 7 14 7 23 0 8 -7 14 -7 19 1 5 8 10 8 20 0 10 -8 15 -8 20 0
5 8 10 8 20 0 10 -8 15 -8 20 0 5 8 11 7 23 -2 13 -11 14 -11 7 1 -5 10 -4 12
3 7 8 -5 12 -47 12 -127 l0 -119 -141 0 -142 0 6 115 c5 105 10 135 23 135 3
0 2 -6 -2 -12z"/>
<path d="M2002 2720 c-43 -27 -51 -52 -53 -164 -2 -158 11 -166 257 -166 251
0 267 12 255 192 -6 89 -9 100 -34 125 l-27 28 -183 3 c-168 2 -184 1 -215
-18z m346 -49 c-5 -14 -269 -221 -282 -221 -29 0 -56 32 -56 65 0 51 8 63 78
116 l65 49 99 0 c58 0 98 -4 96 -9z"/>
<path d="M2941 2727 c-46 -23 -59 -55 -64 -158 -5 -83 -3 -101 14 -128 10 -17
31 -36 45 -41 36 -14 370 -13 397 1 47 24 57 48 57 147 0 108 -15 154 -59 176
-39 21 -352 23 -390 3z"/>
<path d="M487 833 c-11 -11 -7 -345 4 -365 7 -13 22 -18 49 -18 71 0 70 -3 70
146 l0 134 24 0 c21 0 24 -5 30 -61 3 -34 6 -95 6 -135 0 -82 6 -88 78 -82 35
3 37 1 38 -27 3 -82 -2 -76 62 -73 l57 3 3 46 c3 46 3 47 45 52 30 4 50 15 70
37 l28 31 30 -30 c52 -53 147 -51 199 4 l23 24 33 -29 c37 -32 88 -46 136 -36
49 10 58 23 58 83 0 52 -1 54 -22 48 -13 -4 -27 -11 -33 -16 -5 -5 -19 -9 -32
-9 -21 0 -23 5 -23 44 0 49 11 58 52 44 17 -6 34 -6 47 2 12 6 26 8 31 5 6 -3
10 -48 10 -100 0 -102 2 -105 63 -105 52 0 56 8 59 110 3 105 20 128 28 40 6
-61 16 -84 53 -119 55 -51 167 -33 209 33 15 25 18 45 16 103 -4 80 -24 113
-86 140 -35 15 -117 9 -128 -9 -4 -5 -10 -5 -18 1 -17 14 -366 18 -391 4 -11
-6 -29 -20 -39 -32 l-19 -21 -33 29 c-43 38 -98 47 -153 25 -23 -9 -46 -25
-52 -36 -11 -20 -11 -19 -37 5 -40 38 -68 45 -159 39 l-82 -4 -3 38 -3 39
-146 3 c-80 1 -148 -1 -152 -5z"/>
<path d="M2213 759 c-90 -26 -124 -179 -57 -259 14 -16 43 -35 64 -41 119 -36
211 63 181 195 -13 59 -29 78 -84 101 -40 17 -57 17 -104 4z"/>
<path d="M3158 763 l-117 -4 -18 -29 c-22 -38 -33 -38 -33 0 l0 30 -119 0
-120 0 -19 -52 -19 -52 -17 52 -18 52 -64 0 -64 0 -1 -32 c-2 -141 4 -263 13
-269 6 -4 103 -6 217 -5 l206 1 25 39 25 39 3 -36 c4 -41 26 -53 82 -45 29 4
29 4 32 -46 l3 -51 56 -3 c61 -3 69 4 69 69 0 23 5 27 41 33 27 4 51 17 69 36
l27 29 19 -21 c41 -46 124 -61 188 -34 30 13 34 19 40 67 19 135 3 188 -67
222 -49 25 -107 15 -152 -25 -34 -29 -34 -29 -45 -8 -13 25 -69 51 -102 48
-13 -1 -76 -4 -140 -5z"/>
<path d="M4675 756 c-17 -7 -37 -21 -45 -31 -14 -17 -15 -16 -20 6 -5 22 -12
24 -68 27 l-62 3 0 -46 c0 -34 -4 -45 -15 -45 -9 0 -15 6 -14 13 1 6 1 27 0
45 l-1 32 -118 0 c-117 0 -119 0 -130 -25 -6 -14 -16 -25 -22 -25 -5 0 -10 11
-10 25 l0 25 -104 0 c-90 0 -105 -2 -111 -17 -6 -17 -7 -17 -19 0 -10 13 -27
17 -70 17 l-56 0 0 -149 c0 -162 0 -161 60 -161 38 0 60 9 60 26 0 19 7 18 37
-6 20 -16 41 -20 99 -20 88 0 101 4 120 41 19 37 34 37 34 0 0 -36 9 -39 115
-39 112 -1 115 1 115 54 0 32 4 44 15 44 11 0 15 -12 15 -44 0 -48 9 -56 65
-56 49 0 65 9 65 38 l0 26 21 -23 c61 -65 178 -50 221 30 15 26 18 49 16 101
-3 58 -8 71 -33 98 -27 28 -79 50 -115 50 -8 -1 -29 -7 -45 -14z"/>
</g>
</svg>
